{
	"asset":{
		"generator":"Khronos glTF Blender I/O v4.4.56",
		"version":"2.0"
	},
	"scene":0,
	"scenes":[
		{
			"name":"Scene",
			"nodes":[
				0,
				1,
				2,
				3,
				4,
				5,
				6,
				7,
				8,
				9,
				10
			]
		}
	],
	"nodes":[
		{
			"name":"Clinic_Destination",
			"translation":[
				20.189199447631836,
				3.6029300689697266,
				151.82000732421875
			]
		},
		{
			"name":"Playground_Destination",
			"translation":[
				-5.740890026092529,
				3.6029300689697266,
				116.53900146484375
			]
		},
		{
			"name":"Shopping Mall_Destination",
			"translation":[
				-92.31109619140625,
				3.6029300689697266,
				122.77300262451172
			]
		},
		{
			"name":"Cultural Center_Destination",
			"translation":[
				-91.73789978027344,
				3.6029300689697266,
				43.407798767089844
			]
		},
		{
			"name":"Technology Hub_Destination",
			"translation":[
				-112.96499633789062,
				3.6029300689697266,
				3.3504199981689453
			]
		},
		{
			"name":"Church Building_Destination",
			"translation":[
				-57.74509811401367,
				3.6029300689697266,
				2.957779884338379
			]
		},
		{
			"name":"Cinco Residences_Destination",
			"translation":[
				-55.72959899902344,
				3.6029300689697266,
				75.90630340576172
			]
		},
		{
			"name":"Caf\u00e9 & Bakery_Destination",
			"translation":[
				21.994699478149414,
				3.6029300689697266,
				110.90399932861328
			]
		},
		{
			"name":"Residential Block_Destination",
			"translation":[
				21.627899169921875,
				3.6029300689697266,
				42.824100494384766
			]
		},
		{
			"name":"City_Hall_Destination",
			"translation":[
				-10.811599731445312,
				3.6029300689697266,
				3.706120014190674
			]
		},
		{
			"mesh":0,
			"name":"Navmesh"
		}
	],
	"meshes":[
		{
			"name":"Navmesh.002",
			"primitives":[
				{
					"attributes":{
						"POSITION":0,
						"NORMAL":1
					},
					"indices":2
				}
			]
		}
	],
	"accessors":[
		{
			"bufferView":0,
			"componentType":5126,
			"count":128,
			"max":[
				65.38447570800781,
				3.602928638458252,
				159.3260498046875
			],
			"min":[
				-157.51553344726562,
				3.602928638458252,
				-80.67396545410156
			],
			"type":"VEC3"
		},
		{
			"bufferView":1,
			"componentType":5126,
			"count":128,
			"type":"VEC3"
		},
		{
			"bufferView":2,
			"componentType":5123,
			"count":378,
			"type":"SCALAR"
		}
	],
	"bufferViews":[
		{
			"buffer":0,
			"byteLength":1536,
			"byteOffset":0,
			"target":34962
		},
		{
			"buffer":0,
			"byteLength":1536,
			"byteOffset":1536,
			"target":34962
		},
		{
			"buffer":0,
			"byteLength":756,
			"byteOffset":3072,
			"target":34963
		}
	],
	"buffers":[
		{
			"byteLength":3828,
			"uri":"Navmesh.bin"
		}
	]
}
