{
	"asset":{
		"generator":"Khronos glTF Blender I/O v4.2.60",
		"version":"2.0"
	},
	"extensionsUsed":[
		"KHR_materials_specular"
	],
	"scene":0,
	"scenes":[
		{
			"name":"Scene",
			"nodes":[
				0,
				1,
				2
			]
		}
	],
	"nodes":[
		{
			"mesh":0,
			"name":"Mesh_C_Eye_M02",
			"scale":[
				0.002937639830633998,
				0.002937639830633998,
				0.002937639830633998
			],
			"translation":[
				-0.21202342212200165,
				-0.12207916378974915,
				0.4954570233821869
			]
		},
		{
			"mesh":1,
			"name":"Mesh_A_M01",
			"scale":[
				0.010823545046150684,
				0.010823545046150684,
				0.010823545046150684
			],
			"translation":[
				-0.21202342212200165,
				-0.12207916378974915,
				0.4954570233821869
			]
		},
		{
			"mesh":2,
			"name":"Mesh_B_M01",
			"scale":[
				0.010823545046150684,
				0.010823545046150684,
				0.010823545046150684
			],
			"translation":[
				-0.21202342212200165,
				-0.12207916378974915,
				0.4954570233821869
			]
		}
	],
	"materials":[
		{
			"doubleSided":true,
			"extensions":{
				"KHR_materials_specular":{
					"specularTexture":{
						"index":0
					}
				}
			},
			"name":"Material.001",
			"pbrMetallicRoughness":{
				"baseColorTexture":{
					"index":1
				}
			}
		}
	],
	"meshes":[
		{
			"name":"Mesh.002",
			"primitives":[
				{
					"attributes":{
						"POSITION":0,
						"NORMAL":1,
						"TEXCOORD_0":2,
						"COLOR_0":3,
						"COLOR_1":4
					},
					"indices":5,
					"material":0
				}
			]
		},
		{
			"name":"Mesh",
			"primitives":[
				{
					"attributes":{
						"POSITION":6,
						"NORMAL":7,
						"TEXCOORD_0":8,
						"COLOR_0":9,
						"COLOR_1":10
					},
					"indices":11,
					"material":0
				}
			]
		},
		{
			"name":"Mesh.001",
			"primitives":[
				{
					"attributes":{
						"POSITION":12,
						"NORMAL":13,
						"TEXCOORD_0":14
					},
					"indices":15,
					"material":0
				}
			]
		}
	],
	"textures":[
		{
			"sampler":0,
			"source":0
		},
		{
			"sampler":0,
			"source":1
		}
	],
	"images":[
		{
			"mimeType":"image/png",
			"name":"CharacterTexture_Roughness",
			"uri":"CharacterTexture_Roughness.png"
		},
		{
			"mimeType":"image/png",
			"name":"CharacterTexture_BaseColor",
			"uri":"CharacterTexture_BaseColor.png"
		}
	],
	"accessors":[
		{
			"bufferView":0,
			"componentType":5126,
			"count":996,
			"max":[
				89.947998046875,
				627.8099975585938,
				120.6579360961914
			],
			"min":[
				-89.94801330566406,
				426.4819641113281,
				-93.97642517089844
			],
			"type":"VEC3"
		},
		{
			"bufferView":1,
			"componentType":5126,
			"count":996,
			"type":"VEC3"
		},
		{
			"bufferView":2,
			"componentType":5126,
			"count":996,
			"type":"VEC2"
		},
		{
			"bufferView":3,
			"componentType":5121,
			"count":996,
			"normalized":true,
			"type":"VEC4"
		},
		{
			"bufferView":4,
			"componentType":5126,
			"count":996,
			"type":"VEC3"
		},
		{
			"bufferView":5,
			"componentType":5123,
			"count":4704,
			"type":"SCALAR"
		},
		{
			"bufferView":6,
			"componentType":5126,
			"count":852,
			"max":[
				16.20346450805664,
				61.05663299560547,
				14.112552642822266
			],
			"min":[
				-16.20346450805664,
				0.02439594268798828,
				-13.658000946044922
			],
			"type":"VEC3"
		},
		{
			"bufferView":7,
			"componentType":5126,
			"count":852,
			"type":"VEC3"
		},
		{
			"bufferView":8,
			"componentType":5126,
			"count":852,
			"type":"VEC2"
		},
		{
			"bufferView":9,
			"componentType":5121,
			"count":852,
			"normalized":true,
			"type":"VEC4"
		},
		{
			"bufferView":10,
			"componentType":5126,
			"count":852,
			"type":"VEC3"
		},
		{
			"bufferView":11,
			"componentType":5123,
			"count":4008,
			"type":"SCALAR"
		},
		{
			"bufferView":12,
			"componentType":5126,
			"count":4181,
			"max":[
				51.52751541137695,
				167.44102478027344,
				29.92954444885254
			],
			"min":[
				-51.52751541137695,
				56.014644622802734,
				-21.708507537841797
			],
			"type":"VEC3"
		},
		{
			"bufferView":13,
			"componentType":5126,
			"count":4181,
			"type":"VEC3"
		},
		{
			"bufferView":14,
			"componentType":5126,
			"count":4181,
			"type":"VEC2"
		},
		{
			"bufferView":15,
			"componentType":5123,
			"count":22188,
			"type":"SCALAR"
		}
	],
	"bufferViews":[
		{
			"buffer":0,
			"byteLength":11952,
			"byteOffset":0,
			"target":34962
		},
		{
			"buffer":0,
			"byteLength":11952,
			"byteOffset":11952,
			"target":34962
		},
		{
			"buffer":0,
			"byteLength":7968,
			"byteOffset":23904,
			"target":34962
		},
		{
			"buffer":0,
			"byteLength":3984,
			"byteOffset":31872,
			"target":34962
		},
		{
			"buffer":0,
			"byteLength":11952,
			"byteOffset":35856,
			"target":34962
		},
		{
			"buffer":0,
			"byteLength":9408,
			"byteOffset":47808,
			"target":34963
		},
		{
			"buffer":0,
			"byteLength":10224,
			"byteOffset":57216,
			"target":34962
		},
		{
			"buffer":0,
			"byteLength":10224,
			"byteOffset":67440,
			"target":34962
		},
		{
			"buffer":0,
			"byteLength":6816,
			"byteOffset":77664,
			"target":34962
		},
		{
			"buffer":0,
			"byteLength":3408,
			"byteOffset":84480,
			"target":34962
		},
		{
			"buffer":0,
			"byteLength":10224,
			"byteOffset":87888,
			"target":34962
		},
		{
			"buffer":0,
			"byteLength":8016,
			"byteOffset":98112,
			"target":34963
		},
		{
			"buffer":0,
			"byteLength":50172,
			"byteOffset":106128,
			"target":34962
		},
		{
			"buffer":0,
			"byteLength":50172,
			"byteOffset":156300,
			"target":34962
		},
		{
			"buffer":0,
			"byteLength":33448,
			"byteOffset":206472,
			"target":34962
		},
		{
			"buffer":0,
			"byteLength":44376,
			"byteOffset":239920,
			"target":34963
		}
	],
	"samplers":[
		{
			"magFilter":9729,
			"minFilter":9987
		}
	],
	"buffers":[
		{
			"byteLength":284296,
			"uri":"teacher.bin"
		}
	]
}
